<?xml version="1.0" encoding="UTF-8" standalone="no"?>
<!DOCTYPE svg PUBLIC "-//W3C//DTD SVG 1.0//EN" "http://www.w3.org/TR/2001/PR-SVG-20010719/DTD/svg10.dtd">
<svg width="74cm" height="33cm" viewBox="180 354 1472 654" xmlns="http://www.w3.org/2000/svg" xmlns:xlink="http://www.w3.org/1999/xlink">
  <g>
    <path style="fill: #e6e6fa" d="M 622 355.056 C 897,355.056 842,355.056 897,355.056 C 952,355.056 1007,401.2 1007,447.344 C 1007,493.489 1007,631.922 1007,724.211 C 1007,770.356 952,816.5 897,816.5 C 732,816.5 897,816.5 622,816.5 C 347,816.5 347,816.5 292,816.5 C 237,816.5 182,770.356 182,724.211 C 182,678.067 182,585.778 182,493.489 C 182,401.2 237,355.056 292,355.056 C 347,355.056 347,355.056 622,355.056z"/>
    <path style="fill: none; fill-opacity:0; stroke-width: 2; stroke: #000000" d="M 622 355.056 C 897,355.056 842,355.056 897,355.056 C 952,355.056 1007,401.2 1007,447.344 C 1007,493.489 1007,631.922 1007,724.211 C 1007,770.356 952,816.5 897,816.5 C 732,816.5 897,816.5 622,816.5 C 347,816.5 347,816.5 292,816.5 C 237,816.5 182,770.356 182,724.211 C 182,678.067 182,585.778 182,493.489 C 182,401.2 237,355.056 292,355.056 C 347,355.056 347,355.056 622,355.056"/>
    <text font-size="28.2222" style="fill: #000000;text-anchor:middle;font-family:sans-serif;font-style:normal;font-weight:700" x="594.5" y="594.597">
      <tspan x="594.5" y="594.597"></tspan>
    </text>
  </g>
  <text font-size="28.2222" style="fill: #000000;text-anchor:start;font-family:sans-serif;font-style:normal;font-weight:700" x="564" y="392">
    <tspan x="564" y="392">CPU</tspan>
  </text>
  <image x="245" y="421" width="702" height="354" xlink:href="file:///home/lechnerm/rafa/zrafa.github.io/ayodc1/apuntes/imagenes/cachehierarchy2.jpg"/>
  <g>
    <path style="fill: #e6e6fa" d="M 1455.57 356.1 C 1595.24,356.1 1567.3,356.1 1595.24,356.1 C 1623.17,356.1 1651.1,402.245 1651.1,448.389 C 1651.1,494.534 1651.1,632.967 1651.1,725.256 C 1651.1,771.4 1623.17,817.545 1595.24,817.545 C 1511.44,817.545 1595.24,817.545 1455.57,817.545 C 1315.9,817.545 1315.9,817.545 1287.97,817.545 C 1260.04,817.545 1232.1,771.4 1232.1,725.256 C 1232.1,679.111 1232.1,586.822 1232.1,494.534 C 1232.1,402.245 1260.04,356.1 1287.97,356.1 C 1315.9,356.1 1315.9,356.1 1455.57,356.1z"/>
    <path style="fill: none; fill-opacity:0; stroke-width: 2; stroke: #000000" d="M 1455.57 356.1 C 1595.24,356.1 1567.3,356.1 1595.24,356.1 C 1623.17,356.1 1651.1,402.245 1651.1,448.389 C 1651.1,494.534 1651.1,632.967 1651.1,725.256 C 1651.1,771.4 1623.17,817.545 1595.24,817.545 C 1511.44,817.545 1595.24,817.545 1455.57,817.545 C 1315.9,817.545 1315.9,817.545 1287.97,817.545 C 1260.04,817.545 1232.1,771.4 1232.1,725.256 C 1232.1,679.111 1232.1,586.822 1232.1,494.534 C 1232.1,402.245 1260.04,356.1 1287.97,356.1 C 1315.9,356.1 1315.9,356.1 1455.57,356.1"/>
    <text font-size="28.2222" style="fill: #000000;text-anchor:middle;font-family:sans-serif;font-style:normal;font-weight:700" x="1441.6" y="595.642">
      <tspan x="1441.6" y="595.642"></tspan>
    </text>
  </g>
  <text font-size="28.2222" style="fill: #000000;text-anchor:start;font-family:sans-serif;font-style:normal;font-weight:700" x="1383.1" y="567.045">
    <tspan x="1383.1" y="567.045">Memoria</tspan>
    <tspan x="1383.1" y="602.322">principal</tspan>
  </text>
  <g>
    <line style="fill: none; fill-opacity:0; stroke-width: 20; stroke: #000000" x1="261.462" y1="951.687" x2="1572.74" y2="955.314"/>
    <polygon style="fill: #000000" points="216.463,951.562 276.545,921.728 261.462,951.687 276.379,981.728 "/>
    <polygon style="fill: none; fill-opacity:0; stroke-width: 20; stroke: #000000" points="216.463,951.562 276.545,921.728 261.462,951.687 276.379,981.728 "/>
    <polygon style="fill: #000000" points="1617.74,955.439 1557.66,985.272 1572.74,955.314 1557.82,925.273 "/>
    <polygon style="fill: none; fill-opacity:0; stroke-width: 20; stroke: #000000" points="1617.74,955.439 1557.66,985.272 1572.74,955.314 1557.82,925.273 "/>
  </g>
  <g>
    <line style="fill: none; fill-opacity:0; stroke-width: 20; stroke: #000000" x1="594.525" y1="905.145" x2="595.577" y2="812.358"/>
    <polygon style="fill: #000000" points="594.355,920.145 584.583,900.033 594.525,905.145 604.581,900.259 "/>
    <polygon style="fill: none; fill-opacity:0; stroke-width: 20; stroke: #000000" points="594.355,920.145 584.583,900.033 594.525,905.145 604.581,900.259 "/>
    <polygon style="fill: #000000" points="595.747,797.359 605.519,817.471 595.577,812.358 585.521,817.245 "/>
    <polygon style="fill: none; fill-opacity:0; stroke-width: 20; stroke: #000000" points="595.747,797.359 605.519,817.471 595.577,812.358 585.521,817.245 "/>
  </g>
  <g>
    <line style="fill: none; fill-opacity:0; stroke-width: 20; stroke: #000000" x1="1451.65" y1="907.962" x2="1452.7" y2="815.175"/>
    <polygon style="fill: #000000" points="1451.48,922.961 1441.71,902.849 1451.65,907.962 1461.71,903.076 "/>
    <polygon style="fill: none; fill-opacity:0; stroke-width: 20; stroke: #000000" points="1451.48,922.961 1441.71,902.849 1451.65,907.962 1461.71,903.076 "/>
    <polygon style="fill: #000000" points="1452.87,800.176 1462.64,820.288 1452.7,815.175 1442.65,820.061 "/>
    <polygon style="fill: none; fill-opacity:0; stroke-width: 20; stroke: #000000" points="1452.87,800.176 1462.64,820.288 1452.7,815.175 1442.65,820.061 "/>
  </g>
  <g>
    <line style="fill: none; fill-opacity:0; stroke-width: 6; stroke: #000000" x1="323.953" y1="679.297" x2="323.274" y2="628.024"/>
    <polygon style="fill: #000000" points="324.013,683.796 320.934,677.836 323.953,679.297 326.933,677.757 "/>
    <polygon style="fill: none; fill-opacity:0; stroke-width: 6; stroke: #000000" points="324.013,683.796 320.934,677.836 323.953,679.297 326.933,677.757 "/>
    <polygon style="fill: #000000" points="323.214,623.524 326.293,629.484 323.274,628.024 320.294,629.563 "/>
    <polygon style="fill: none; fill-opacity:0; stroke-width: 6; stroke: #000000" points="323.214,623.524 326.293,629.484 323.274,628.024 320.294,629.563 "/>
  </g>
  <g>
    <line style="fill: none; fill-opacity:0; stroke-width: 6; stroke: #000000" x1="499.88" y1="680.223" x2="499.201" y2="628.95"/>
    <polygon style="fill: #000000" points="499.94,684.723 496.861,678.763 499.88,680.223 502.86,678.684 "/>
    <polygon style="fill: none; fill-opacity:0; stroke-width: 6; stroke: #000000" points="499.94,684.723 496.861,678.763 499.88,680.223 502.86,678.684 "/>
    <polygon style="fill: #000000" points="499.141,624.451 502.22,630.411 499.201,628.95 496.221,630.49 "/>
    <polygon style="fill: none; fill-opacity:0; stroke-width: 6; stroke: #000000" points="499.141,624.451 502.22,630.411 499.201,628.95 496.221,630.49 "/>
  </g>
  <g>
    <line style="fill: none; fill-opacity:0; stroke-width: 6; stroke: #000000" x1="673.88" y1="679.223" x2="673.201" y2="627.95"/>
    <polygon style="fill: #000000" points="673.94,683.723 670.861,677.763 673.88,679.223 676.86,677.684 "/>
    <polygon style="fill: none; fill-opacity:0; stroke-width: 6; stroke: #000000" points="673.94,683.723 670.861,677.763 673.88,679.223 676.86,677.684 "/>
    <polygon style="fill: #000000" points="673.141,623.451 676.22,629.411 673.201,627.95 670.221,629.49 "/>
    <polygon style="fill: none; fill-opacity:0; stroke-width: 6; stroke: #000000" points="673.141,623.451 676.22,629.411 673.201,627.95 670.221,629.49 "/>
  </g>
  <g>
    <line style="fill: none; fill-opacity:0; stroke-width: 6; stroke: #000000" x1="848.88" y1="679.223" x2="848.201" y2="627.95"/>
    <polygon style="fill: #000000" points="848.94,683.723 845.861,677.763 848.88,679.223 851.86,677.684 "/>
    <polygon style="fill: none; fill-opacity:0; stroke-width: 6; stroke: #000000" points="848.94,683.723 845.861,677.763 848.88,679.223 851.86,677.684 "/>
    <polygon style="fill: #000000" points="848.141,623.451 851.22,629.411 848.201,627.95 845.221,629.49 "/>
    <polygon style="fill: none; fill-opacity:0; stroke-width: 6; stroke: #000000" points="848.141,623.451 851.22,629.411 848.201,627.95 845.221,629.49 "/>
  </g>
</svg>
