<?xml version="1.0" encoding="UTF-8" standalone="no"?>
<!DOCTYPE svg PUBLIC "-//W3C//DTD SVG 1.0//EN" "http://www.w3.org/TR/2001/PR-SVG-20010719/DTD/svg10.dtd">
<svg width="67cm" height="24cm" viewBox="181 355 1325 466" xmlns="http://www.w3.org/2000/svg" xmlns:xlink="http://www.w3.org/1999/xlink">
  <defs/>
  <g id="Fondo">
    <g>
      <path style="fill: #e6e6fa; fill-opacity: 1; stroke-opacity: 0; stroke-width: 0.02; stroke: #ffffff" fill-rule="evenodd" d="M 623.862 356.119 C 899.686,356.119 844.521,356.119 899.686,356.119 C 954.85,356.119 1010.01,402.401 1010.01,448.683 C 1010.01,494.967 1010.01,633.814 1010.01,726.379 C 1010.01,772.662 954.85,818.945 899.686,818.945 C 734.192,818.945 899.686,818.945 623.862,818.945 C 348.039,818.945 348.039,818.945 292.874,818.945 C 237.71,818.945 182.545,772.662 182.545,726.379 C 182.545,680.097 182.545,587.532 182.545,494.967 C 182.545,402.401 237.71,356.119 292.874,356.119 C 348.039,356.119 348.039,356.119 623.862,356.119z"/>
      <path style="fill: none; stroke-opacity: 1; stroke-width: 0.0200599; stroke: #e6e6fa" d="M 623.862 356.119 C 899.686,356.119 844.521,356.119 899.686,356.119 C 954.85,356.119 1010.01,402.401 1010.01,448.683 C 1010.01,494.967 1010.01,633.814 1010.01,726.379 C 1010.01,772.662 954.85,818.945 899.686,818.945 C 734.192,818.945 899.686,818.945 623.862,818.945 C 348.039,818.945 348.039,818.945 292.874,818.945 C 237.71,818.945 182.545,772.662 182.545,726.379 C 182.545,680.097 182.545,587.532 182.545,494.967 C 182.545,402.401 237.71,356.119 292.874,356.119 C 348.039,356.119 348.039,356.119 623.862,356.119"/>
      <path style="fill: none; stroke-opacity: 1; stroke-width: 2.00599; stroke: #000000" d="M 623.862 356.119 C 899.686,356.119 844.521,356.119 899.686,356.119 C 954.85,356.119 1010.01,402.401 1010.01,448.683 C 1010.01,494.967 1010.01,633.814 1010.01,726.379 C 1010.01,772.662 954.85,818.945 899.686,818.945 C 734.192,818.945 899.686,818.945 623.862,818.945 C 348.039,818.945 348.039,818.945 292.874,818.945 C 237.71,818.945 182.545,772.662 182.545,726.379 C 182.545,680.097 182.545,587.532 182.545,494.967 C 182.545,402.401 237.71,356.119 292.874,356.119 C 348.039,356.119 348.039,356.119 623.862,356.119"/>
      <text font-size="12.8381" style="fill: #000000; fill-opacity: 1; stroke: none;text-anchor:middle;font-family:sans-serif;font-style:normal;font-weight:700" x="596.28" y="596.377">
        <tspan x="596.28" y="596.377"></tspan>
      </text>
    </g>
    <text font-size="33.9675" style="fill: #000000; fill-opacity: 1; stroke: none;text-anchor:start;font-family:sans-serif;font-style:normal;font-weight:700" x="451.689" y="397.174">
      <tspan x="451.689" y="397.174">Microprocesador</tspan>
    </text>
    <g>
      <path style="fill: #e6e6fa; fill-opacity: 1; stroke-opacity: 0; stroke-width: 0.02; stroke: #ffffff" fill-rule="evenodd" d="M 1308.48 357.166 C 1448.56,357.166 1420.54,357.166 1448.56,357.166 C 1476.58,357.166 1504.59,403.449 1504.59,449.731 C 1504.59,496.015 1504.59,634.862 1504.59,727.427 C 1504.59,773.71 1476.58,819.993 1448.56,819.993 C 1364.51,819.993 1448.56,819.993 1308.48,819.993 C 1168.39,819.993 1168.39,819.993 1140.37,819.993 C 1112.36,819.993 1084.34,773.71 1084.34,727.427 C 1084.34,681.144 1084.34,588.579 1084.34,496.015 C 1084.34,403.449 1112.36,357.166 1140.37,357.166 C 1168.39,357.166 1168.39,357.166 1308.48,357.166z"/>
      <path style="fill: none; stroke-opacity: 1; stroke-width: 0.0200599; stroke: #e6e6fa" d="M 1308.48 357.166 C 1448.56,357.166 1420.54,357.166 1448.56,357.166 C 1476.58,357.166 1504.59,403.449 1504.59,449.731 C 1504.59,496.015 1504.59,634.862 1504.59,727.427 C 1504.59,773.71 1476.58,819.993 1448.56,819.993 C 1364.51,819.993 1448.56,819.993 1308.48,819.993 C 1168.39,819.993 1168.39,819.993 1140.37,819.993 C 1112.36,819.993 1084.34,773.71 1084.34,727.427 C 1084.34,681.144 1084.34,588.579 1084.34,496.015 C 1084.34,403.449 1112.36,357.166 1140.37,357.166 C 1168.39,357.166 1168.39,357.166 1308.48,357.166"/>
      <path style="fill: none; stroke-opacity: 1; stroke-width: 2.00599; stroke: #000000" d="M 1308.48 357.166 C 1448.56,357.166 1420.54,357.166 1448.56,357.166 C 1476.58,357.166 1504.59,403.449 1504.59,449.731 C 1504.59,496.015 1504.59,634.862 1504.59,727.427 C 1504.59,773.71 1476.58,819.993 1448.56,819.993 C 1364.51,819.993 1448.56,819.993 1308.48,819.993 C 1168.39,819.993 1168.39,819.993 1140.37,819.993 C 1112.36,819.993 1084.34,773.71 1084.34,727.427 C 1084.34,681.144 1084.34,588.579 1084.34,496.015 C 1084.34,403.449 1112.36,357.166 1140.37,357.166 C 1168.39,357.166 1168.39,357.166 1308.48,357.166"/>
      <text font-size="12.8381" style="fill: #000000; fill-opacity: 1; stroke: none;text-anchor:middle;font-family:sans-serif;font-style:normal;font-weight:700" x="1294.46" y="597.425">
        <tspan x="1294.46" y="597.425"></tspan>
      </text>
    </g>
    <text font-size="33.9675" style="fill: #000000; fill-opacity: 1; stroke: none;text-anchor:start;font-family:sans-serif;font-style:normal;font-weight:700" x="1211.72" y="566.737">
      <tspan x="1211.72" y="566.737">Memoria</tspan>
      <tspan x="1211.72" y="609.197">principal</tspan>
    </text>
    <text font-size="12.7998" style="fill: #000000; fill-opacity: 1; stroke: none;text-anchor:start;font-family:sans-serif;font-style:normal;font-weight:normal" x="614" y="384.5">
      <tspan x="614" y="384.5"></tspan>
    </text>
    <image x="283.3" y="446.5" width="848.2" height="358.22" xlink:href="http://se.fi.uncoma.edu.ar/ayodc1/apuntes/imagenes/CacheOU2.gif"/>
  </g>
</svg>
